<svg width="290" height="35" viewBox="0 0 290 35" fill="none" xmlns="http://www.w3.org/2000/svg">
<path d="M159.362 0C168.691 0.000123969 174.716 7.32876 174.716 16.6289C174.716 21.2408 173.212 25.2608 170.618 28.1465C171.877 29.3988 173.085 30.6595 174.26 31.9541L171.581 34.5947C170.364 33.3 169.071 31.9543 167.77 30.6172C165.387 32.1656 162.539 33.0459 159.362 33.0459C150.329 33.0544 143.882 26.0983 143.882 16.6289C143.882 7.28637 149.991 0 159.362 0ZM39.251 0C48.58 0 54.6045 7.32868 54.6045 16.6289C54.6044 26.0983 48.2419 33.0547 39.251 33.0547C30.2094 33.0547 23.7706 26.0983 23.7705 16.6289C23.7705 7.28637 29.8797 8.6608e-06 39.251 0ZM63.0049 20.3604C63.0049 26.2248 65.9707 29.2803 71.3281 29.2803C76.812 29.2802 79.8622 26.2675 79.8623 20.4033V0.75293H83.665V20.4033C83.6649 28.5693 78.9837 33.0546 71.3281 33.0547C63.723 33.0547 59.2021 28.6535 59.2021 20.3604V0.75293H63.0049V20.3604ZM128.409 0C134.806 8.31361e-05 138.659 2.93643 139.952 8.54688L136.064 9.38477C135.228 5.61061 132.718 3.73242 128.324 3.73242C124.226 3.73247 121.674 5.32299 121.674 8.04785C121.674 10.5611 123.804 12.2792 129.786 14.124C137.653 16.5104 140.577 19.6074 140.577 24.0078C140.577 29.4999 136.098 33.0547 129.152 33.0547C122.206 33.0546 117.914 29.6183 116.866 23.2461L120.635 22.4932C121.387 26.9782 124.234 29.2802 128.958 29.2803C133.521 29.2803 136.698 27.1047 136.698 23.999C136.698 21.2744 134.231 19.3874 128.206 17.6357C120.888 15.5371 117.745 12.44 117.745 8.08203C117.745 3.09765 121.843 0 128.409 0ZM183.293 20.3604C183.293 26.2247 186.259 29.2802 191.616 29.2803C197.1 29.2803 200.151 26.2675 200.151 20.4033V0.75293H203.954V20.4033C203.954 28.5693 199.272 33.0547 191.616 33.0547C184.003 33.0546 179.49 28.6534 179.49 20.3604V0.75293H183.293V20.3604ZM21.666 4.48535H3.76074V14.208H19.6553V17.9404H3.76074V32.2676H0V0.75293H21.666V4.48535ZM288.642 4.48535H270.49V14.208H287.264V17.9404H270.49V28.4932H289.021V32.2676H266.722V0.75293H288.642V4.48535ZM102.729 0.75293C108.796 0.75293 112.81 4.56155 112.81 9.7998C112.809 13.3622 110.925 16.2476 107.419 17.6777C111.433 20.0218 110.055 25.3874 113.612 32.2588H109.346C106.878 27.5706 107.418 18.6846 101.731 18.6846H93.4502V32.2588H89.6904V0.75293H102.729ZM234.729 32.2588H230.716L227.2 23.1699H213.351L209.877 32.2588H205.779L218.074 0.75293H222.511L234.729 32.2588ZM251.148 0.75293C257.215 0.753091 261.229 4.56166 261.229 9.7998C261.229 13.3623 259.345 16.2476 255.838 17.6777C259.852 20.0218 258.475 25.3873 262.032 32.2588H257.765C255.297 27.5707 255.838 18.685 250.151 18.6846H241.87V32.2588H238.109V0.75293H251.148ZM39.2422 3.76562C32.3387 3.76581 27.8605 9.29166 27.8604 16.5859C27.8604 24.0412 32.6681 29.3221 39.2422 29.3223C45.7742 29.3223 50.583 24.0837 50.583 16.5859C50.5828 9.3 46.1458 3.76562 39.2422 3.76562ZM159.354 3.76562C152.45 3.76568 147.972 9.29157 147.972 16.5859C147.972 24.0413 152.779 29.3222 159.354 29.3223C161.415 29.3223 163.291 28.823 164.922 27.8584C163.663 26.6822 162.454 25.5144 161.195 24.4229L163.832 21.7822C165.167 22.9585 166.511 24.1691 167.804 25.3877C169.604 23.1705 170.693 20.1486 170.693 16.5859C170.693 9.3 166.257 3.76562 159.354 3.76562ZM214.846 19.4805H225.688L220.33 5.32324L214.846 19.4805ZM93.4424 14.9531H102.645C106.371 14.9531 108.957 12.7779 108.957 9.62988C108.957 6.53288 106.489 4.47663 102.645 4.47656H93.4424V14.9531ZM241.853 14.9531H251.055C254.781 14.9531 257.367 12.7779 257.367 9.62988C257.367 6.53283 254.899 4.47656 251.055 4.47656H241.853V14.9531Z" fill="#171717"/>
</svg>
