<svg width="36" height="36" viewBox="0 0 36 36" fill="none" xmlns="http://www.w3.org/2000/svg">
<g clip-path="url(#clip0_2441_25909)">
<path d="M12.5795 8.68506H9.01953C8.74339 8.68506 8.51953 8.90892 8.51953 9.18506V12.7451C8.51953 13.0212 8.74339 13.2451 9.01953 13.2451H12.5795C12.8557 13.2451 13.0795 13.0212 13.0795 12.7451V9.18506C13.0795 8.90892 12.8557 8.68506 12.5795 8.68506Z" fill="#000033"/>
<path d="M19.7954 8.68506H16.2354C15.9592 8.68506 15.7354 8.90892 15.7354 9.18506V12.7451C15.7354 13.0212 15.9592 13.2451 16.2354 13.2451H19.7954C20.0715 13.2451 20.2954 13.0212 20.2954 12.7451V9.18506C20.2954 8.90892 20.0715 8.68506 19.7954 8.68506Z" fill="#000033"/>
<path d="M26.9799 8.68506H23.4199C23.1438 8.68506 22.9199 8.90892 22.9199 9.18506V12.7451C22.9199 13.0212 23.1438 13.2451 23.4199 13.2451H26.9799C27.2561 13.2451 27.4799 13.0212 27.4799 12.7451V9.18506C27.4799 8.90892 27.2561 8.68506 26.9799 8.68506Z" fill="#000033"/>
<path d="M12.5795 15.7202H9.01953C8.74339 15.7202 8.51953 15.9441 8.51953 16.2202V19.7802C8.51953 20.0564 8.74339 20.2802 9.01953 20.2802H12.5795C12.8557 20.2802 13.0795 20.0564 13.0795 19.7802V16.2202C13.0795 15.9441 12.8557 15.7202 12.5795 15.7202Z" fill="#000033"/>
<path d="M19.7954 15.7202H16.2354C15.9592 15.7202 15.7354 15.9441 15.7354 16.2202V19.7802C15.7354 20.0564 15.9592 20.2802 16.2354 20.2802H19.7954C20.0715 20.2802 20.2954 20.0564 20.2954 19.7802V16.2202C20.2954 15.9441 20.0715 15.7202 19.7954 15.7202Z" fill="#000033"/>
<path d="M26.9799 15.7202H23.4199C23.1438 15.7202 22.9199 15.9441 22.9199 16.2202V19.7802C22.9199 20.0564 23.1438 20.2802 23.4199 20.2802H26.9799C27.2561 20.2802 27.4799 20.0564 27.4799 19.7802V16.2202C27.4799 15.9441 27.2561 15.7202 26.9799 15.7202Z" fill="#000033"/>
<path d="M12.5795 22.7549H9.01953C8.74339 22.7549 8.51953 22.9787 8.51953 23.2549V26.8149C8.51953 27.091 8.74339 27.3149 9.01953 27.3149H12.5795C12.8557 27.3149 13.0795 27.091 13.0795 26.8149V23.2549C13.0795 22.9787 12.8557 22.7549 12.5795 22.7549Z" fill="#000033"/>
<path d="M19.7954 22.7549H16.2354C15.9592 22.7549 15.7354 22.9787 15.7354 23.2549V26.8149C15.7354 27.091 15.9592 27.3149 16.2354 27.3149H19.7954C20.0715 27.3149 20.2954 27.091 20.2954 26.8149V23.2549C20.2954 22.9787 20.0715 22.7549 19.7954 22.7549Z" fill="#000033"/>
<path d="M26.9799 22.7549H23.4199C23.1438 22.7549 22.9199 22.9787 22.9199 23.2549V26.8149C22.9199 27.091 23.1438 27.3149 23.4199 27.3149H26.9799C27.2561 27.3149 27.4799 27.091 27.4799 26.8149V23.2549C27.4799 22.9787 27.2561 22.7549 26.9799 22.7549Z" fill="#000033"/>
</g>
<defs>
<clipPath id="clip0_2441_25909">
<rect width="24" height="24" fill="white" transform="translate(6 6)"/>
</clipPath>
</defs>
</svg>
