<svg width="36" height="36" viewBox="0 0 36 36" fill="none" xmlns="http://www.w3.org/2000/svg">
<path d="M17.9996 7.5C20.7834 7.50314 23.453 8.61065 25.4214 10.5791C27.3897 12.5475 28.4964 15.2164 28.4996 18C28.4996 20.0766 27.8837 22.1063 26.73 23.833C25.5763 25.5597 23.9368 26.9065 22.0181 27.7012C20.0996 28.4958 17.9884 28.7029 15.9517 28.2979C13.9149 27.8927 12.0432 26.8933 10.5748 25.4248C9.10649 23.9565 8.1069 22.0854 7.70172 20.0488C7.29658 18.012 7.50466 15.9001 8.29938 13.9814C9.09412 12.063 10.44 10.4232 12.1666 9.26953C13.8932 8.1159 15.923 7.50006 17.9996 7.5ZM15.7496 22.5C15.1531 22.5007 14.5815 22.7384 14.1597 23.1602C13.738 23.582 13.5002 24.1535 13.4996 24.75V25.7822C14.8651 26.5796 16.4183 27 17.9996 27C19.5809 27 21.134 26.5796 22.4996 25.7822V24.75C22.4989 24.1536 22.262 23.5819 21.8404 23.1602C21.4186 22.7383 20.8461 22.5007 20.2496 22.5H15.7496ZM17.9996 8.98145C16.1763 8.9815 14.3956 9.53506 12.8941 10.5693C11.3926 11.6037 10.2412 13.0699 9.59137 14.7734C8.94148 16.477 8.82426 18.3377 9.25543 20.1094C9.68661 21.881 10.6454 23.4799 12.0054 24.6943C12.0203 23.7106 12.4213 22.7721 13.1216 22.0811C13.822 21.3901 14.7657 21.0017 15.7496 21H20.2496C21.2335 21.0017 22.1781 21.39 22.8785 22.0811C23.5787 22.7721 23.9798 23.7107 23.9947 24.6943C25.3546 23.4799 26.3135 21.8809 26.7447 20.1094C27.1758 18.3378 27.0586 16.477 26.4088 14.7734C25.7588 13.0698 24.6067 11.6037 23.105 10.5693C21.6034 9.53504 19.8229 8.98145 17.9996 8.98145ZM17.9996 12C18.9941 12 19.9487 12.3954 20.6519 13.0986C21.355 13.8019 21.7496 14.7556 21.7496 15.75C21.7496 16.4916 21.5297 17.2164 21.1177 17.833C20.7057 18.4497 20.1203 18.931 19.4351 19.2148C18.7499 19.4987 17.9956 19.5724 17.2681 19.4277C16.5408 19.283 15.8726 18.9258 15.3482 18.4014C14.8238 17.8769 14.4665 17.2088 14.3218 16.4814C14.1772 15.7541 14.2519 14.9996 14.5357 14.3145C14.8196 13.6295 15.3 13.0438 15.9166 12.6318C16.5331 12.2199 17.258 12.0001 17.9996 12ZM18.8609 13.6709C18.4499 13.5007 17.9974 13.4562 17.5611 13.543C17.1246 13.6298 16.7234 13.8445 16.4088 14.1592C16.0942 14.4738 15.8803 14.8751 15.7935 15.3115C15.7068 15.7479 15.7512 16.2003 15.9214 16.6113C16.0918 17.0223 16.3797 17.3739 16.7496 17.6211C17.1195 17.8683 17.5547 17.9999 17.9996 18C18.5961 17.9993 19.1686 17.7617 19.5904 17.3398C20.012 16.9181 20.2489 16.3464 20.2496 15.75C20.2496 15.305 20.1179 14.87 19.8707 14.5C19.6234 14.13 19.272 13.8412 18.8609 13.6709Z" fill="#000033"/>
</svg>
