<svg width="36" height="36" viewBox="0 0 36 36" fill="none" xmlns="http://www.w3.org/2000/svg">
<path d="M19.5 7.49977C19.5985 7.49706 19.6965 7.51567 19.7871 7.55446C19.855 7.58356 19.9178 7.62364 19.9727 7.67262L25.3271 13.0271C25.3762 13.082 25.4162 13.1447 25.4453 13.2127C25.4841 13.3032 25.5027 13.4013 25.5 13.4998V19.4998H24V14.9998H19.5C19.1025 14.9986 18.7215 14.8404 18.4404 14.5593C18.1594 14.2783 18.0011 13.8972 18 13.4998V8.99977H12V26.9998H16.5V28.4998H12C11.6025 28.4986 11.2215 28.3404 10.9404 28.0593C10.6594 27.7783 10.5011 27.3972 10.5 26.9998V8.99977C10.5012 8.60235 10.6594 8.22122 10.9404 7.9402C11.2215 7.65919 11.6026 7.50092 12 7.49977H19.5ZM22.0576 23.5652L20.1221 25.4998L22.0654 27.4422L21 28.4998L18 25.4998L21 22.4998L22.0576 23.5652ZM28.5 25.4998L25.5 28.4998L24.4424 27.4353L26.3779 25.4998L24.4346 23.5574L25.5 22.4998L28.5 25.4998ZM19.5 13.4998H23.7002L19.5 9.29958V13.4998Z" fill="#000033"/>
</svg>
