<svg width="36" height="36" viewBox="0 0 36 36" fill="none" xmlns="http://www.w3.org/2000/svg">
<path d="M18 15.3075C18.4142 15.3075 18.75 14.9717 18.75 14.5575C18.75 14.1432 18.4142 13.8075 18 13.8075C17.5858 13.8075 17.25 14.1432 17.25 14.5575C17.25 14.9717 17.5858 15.3075 18 15.3075Z" fill="#000033"/>
<path d="M17.25 17.7736C17.25 17.3594 17.5858 17.0236 18 17.0236C18.4142 17.0236 18.75 17.3594 18.75 17.7736V21.4425C18.75 21.8567 18.4142 22.1925 18 22.1925C17.5858 22.1925 17.25 21.8567 17.25 21.4425V17.7736Z" fill="#000033"/>
<path fill-rule="evenodd" clip-rule="evenodd" d="M28.5 18C28.5 23.799 23.799 28.5 18 28.5C12.201 28.5 7.5 23.799 7.5 18C7.5 12.201 12.201 7.5 18 7.5C23.799 7.5 28.5 12.201 28.5 18ZM27 18C27 22.9706 22.9706 27 18 27C13.0294 27 9 22.9706 9 18C9 13.0294 13.0294 9 18 9C22.9706 9 27 13.0294 27 18Z" fill="#000033"/>
</svg>
